<svg width="84" height="84" viewBox="0 0 84 84" fill="none" xmlns="http://www.w3.org/2000/svg">
<rect x="6" y="6" width="72" height="72" rx="36" fill="#E0EAFF"/>
<rect x="6" y="6" width="72" height="72" rx="36" stroke="#EEF4FF" stroke-width="12"/>
<path d="M46.05 33.45C45.7752 33.7304 45.6212 34.1073 45.6212 34.5C45.6212 34.8926 45.7752 35.2696 46.05 35.55L48.45 37.95C48.7304 38.2248 49.1074 38.3788 49.5 38.3788C49.8927 38.3788 50.2696 38.2248 50.55 37.95L56.205 32.295C56.9593 33.9618 57.1877 35.8188 56.8597 37.6187C56.5318 39.4186 55.6631 41.0757 54.3694 42.3694C53.0758 43.663 51.4186 44.5317 49.6187 44.8597C47.8189 45.1876 45.9618 44.9592 44.295 44.205L33.93 54.57C33.3333 55.1667 32.5239 55.5019 31.68 55.5019C30.8361 55.5019 30.0268 55.1667 29.43 54.57C28.8333 53.9732 28.498 53.1639 28.498 52.32C28.498 51.4761 28.8333 50.6667 29.43 50.07L39.795 39.705C39.0408 38.0382 38.8124 36.1811 39.1403 34.3813C39.4683 32.5814 40.337 30.9242 41.6306 29.6306C42.9243 28.3369 44.5814 27.4682 46.3813 27.1403C48.1812 26.8123 50.0382 27.0407 51.705 27.795L46.065 33.435L46.05 33.45Z" stroke="#444CE7" stroke-width="3" stroke-linecap="round" stroke-linejoin="round"/>
</svg>
