<svg width="56" height="56" viewBox="0 0 56 56" fill="none" xmlns="http://www.w3.org/2000/svg">
<rect width="56" height="56" rx="28" fill="#E0EAFF"/>
<path d="M31.5 16.3335V17.9668C31.5 18.6202 31.5 18.9469 31.3728 19.1965C31.2609 19.416 31.0825 19.5945 30.8629 19.7063C30.6134 19.8335 30.2867 19.8335 29.6333 19.8335H26.3666C25.7132 19.8335 25.3865 19.8335 25.137 19.7063C24.9174 19.5945 24.739 19.416 24.6271 19.1965C24.5 18.9469 24.5 18.6202 24.5 17.9668V16.3335M28 23.3335L28.0116 31.5002M28 35.0002H28.0116M22.4 39.6668H33.6C34.9067 39.6668 35.5601 39.6668 36.0593 39.4125C36.4983 39.1888 36.8553 38.8319 37.079 38.3928C37.3333 37.8937 37.3333 37.2403 37.3333 35.9335V20.0668C37.3333 18.76 37.3333 18.1066 37.079 17.6075C36.8553 17.1685 36.4983 16.8115 36.0593 16.5878C35.5601 16.3335 34.9067 16.3335 33.6 16.3335H22.4C21.0932 16.3335 20.4398 16.3335 19.9406 16.5878C19.5016 16.8115 19.1446 17.1685 18.9209 17.6075C18.6666 18.1066 18.6666 18.76 18.6666 20.0668V35.9335C18.6666 37.2403 18.6666 37.8937 18.9209 38.3928C19.1446 38.8319 19.5016 39.1888 19.9406 39.4125C20.4398 39.6668 21.0932 39.6668 22.4 39.6668Z" stroke="#444CE7" stroke-width="2.33333" stroke-linecap="round" stroke-linejoin="round"/>
</svg>
