<svg width="56" height="56" viewBox="0 0 56 56" fill="none" xmlns="http://www.w3.org/2000/svg">
<rect width="56" height="56" rx="28" fill="#E0EAFF"/>
<path d="M17.4999 32.6665V22.3998C17.4999 21.093 17.4999 20.4397 17.7542 19.9405C17.9779 19.5015 18.3349 19.1445 18.7739 18.9208C19.2731 18.6665 19.9265 18.6665 21.2333 18.6665H34.7666C36.0734 18.6665 36.7268 18.6665 37.2259 18.9208C37.6649 19.1445 38.0219 19.5015 38.2456 19.9405C38.4999 20.4397 38.4999 21.093 38.4999 22.3998V32.6665H32.2731C31.9878 32.6665 31.8451 32.6665 31.7108 32.6987C31.5918 32.7273 31.478 32.7745 31.3736 32.8384C31.2558 32.9106 31.155 33.0115 30.9532 33.2132L30.88 33.2864C30.6782 33.4882 30.5773 33.5891 30.4596 33.6613C30.3552 33.7252 30.2414 33.7724 30.1224 33.8009C29.9881 33.8332 29.8454 33.8332 29.5601 33.8332H26.4398C26.1544 33.8332 26.0117 33.8332 25.8775 33.8009C25.7584 33.7724 25.6446 33.7252 25.5403 33.6613C25.4225 33.5891 25.3216 33.4882 25.1199 33.2864L25.0467 33.2132C24.8449 33.0115 24.744 32.9106 24.6263 32.8384C24.5219 32.7745 24.4081 32.7273 24.289 32.6987C24.1548 32.6665 24.0121 32.6665 23.7267 32.6665H17.4999ZM17.4999 32.6665C16.8556 32.6665 16.3333 33.1888 16.3333 33.8332V34.2221C16.3333 34.9454 16.3333 35.307 16.4128 35.6037C16.6285 36.409 17.2575 37.0379 18.0627 37.2537C18.3594 37.3332 18.7211 37.3332 19.4444 37.3332H36.5555C37.2788 37.3332 37.6404 37.3332 37.9372 37.2537C38.7424 37.0379 39.3713 36.409 39.5871 35.6037C39.6666 35.307 39.6666 34.9454 39.6666 34.2221C39.6666 33.8604 39.6666 33.6796 39.6268 33.5312C39.519 33.1286 39.2045 32.8141 38.8019 32.7063C38.6535 32.6665 38.4727 32.6665 38.111 32.6665H37.3333" stroke="#444CE7" stroke-width="2.33333" stroke-linecap="round" stroke-linejoin="round"/>
</svg>
