<svg width="56" height="56" viewBox="0 0 56 56" fill="none" xmlns="http://www.w3.org/2000/svg">
<rect width="56" height="56" rx="28" fill="#E0EAFF"/>
<path d="M33.8334 35.5835L33.4404 36.9591C33.1631 37.9297 33.0244 38.415 32.7413 38.7752C32.4915 39.0932 32.1633 39.3407 31.789 39.4936C31.3648 39.6668 30.8601 39.6668 29.8507 39.6668H26.1495C25.14 39.6668 24.6353 39.6668 24.2112 39.4936C23.8369 39.3407 23.5087 39.0932 23.2588 38.7752C22.9758 38.415 22.8371 37.9297 22.5598 36.9591L22.1667 35.5835M33.8334 20.4168L33.4404 19.0412C33.1631 18.0706 33.0244 17.5853 32.7413 17.2251C32.4915 16.9072 32.1633 16.6596 31.789 16.5067C31.3648 16.3335 30.8601 16.3335 29.8507 16.3335H26.1495C25.14 16.3335 24.6353 16.3335 24.2112 16.5067C23.8369 16.6596 23.5087 16.9072 23.2588 17.2251C22.9758 17.5853 22.8371 18.0706 22.5598 19.0412L22.1667 20.4168M28.0001 24.5002V28.0002L29.7501 29.7502M24.1501 35.5835H31.8501C33.1569 35.5835 33.8103 35.5835 34.3094 35.3292C34.7484 35.1055 35.1054 34.7485 35.3291 34.3095C35.5834 33.8103 35.5834 33.157 35.5834 31.8502V24.1502C35.5834 22.8434 35.5834 22.19 35.3291 21.6909C35.1054 21.2518 34.7484 20.8949 34.3094 20.6711C33.8103 20.4168 33.1569 20.4168 31.8501 20.4168H24.1501C22.8433 20.4168 22.1899 20.4168 21.6908 20.6711C21.2517 20.8949 20.8948 21.2518 20.6711 21.6909C20.4167 22.19 20.4167 22.8434 20.4167 24.1502V31.8502C20.4167 33.157 20.4167 33.8103 20.6711 34.3095C20.8948 34.7485 21.2517 35.1055 21.6908 35.3292C22.1899 35.5835 22.8433 35.5835 24.1501 35.5835Z" stroke="#444CE7" stroke-width="2.33333" stroke-linecap="round" stroke-linejoin="round"/>
</svg>
